#N canvas 1142 587 466 316 10;
#X msg 75 75 channel \$1;
#X floatatom 75 45 5 0 0 0 - - -;
#X obj 90 111 osc~ 440;
#X obj 154 112 osc~ 777;
#X obj 219 112 noise~;
#X obj 268 112 osc~ 899;
#X obj 75 268 dac~;
#X obj 75 198 *~ 0.02;
#X msg 285 188 \; pd dsp 1;
#X msg 285 218 \; pd dsp 0;
#X msg -19 72 fadetime \$1;
#X msg -20 44 20;
#X msg 151 41 1;
#X msg 185 41 2;
#X msg 217 42 3;
#X text 130 24 select channel;
#X text -19 24 set fadetime;
#X msg 26 44 1000;
#X msg 123 42 0;
#X text 124 251 Cross fade between multiple sources;
#X obj 75 153 clean_selector~ 4 250;
#X text 230 152 args: inputs \, fadetime;
#X connect 0 0 20 0;
#X connect 1 0 0 0;
#X connect 2 0 20 0;
#X connect 3 0 20 1;
#X connect 4 0 20 2;
#X connect 5 0 20 3;
#X connect 7 0 6 0;
#X connect 7 0 6 1;
#X connect 10 0 20 0;
#X connect 11 0 10 0;
#X connect 12 0 1 0;
#X connect 13 0 1 0;
#X connect 14 0 1 0;
#X connect 17 0 10 0;
#X connect 18 0 1 0;
#X connect 20 0 7 0;
