#N canvas 178 231 577 334 10;
#X obj 168 111 distortion~;
#X floatatom 204 88 5 0 0 0 - knee -;
#X floatatom 240 74 5 0 0 0 - cut -;
#X obj 168 47 osc~ 270;
#X floatatom 168 25 5 0 0 0 - - -;
#X obj 168 181 *~ 0.1;
#X obj 168 209 dac~;
#X msg 266 221 \; pd dsp \$1;
#X obj 266 200 tgl 15 0 empty empty empty 0 -6 0 8 -262144 -1 -1 0
1;
#X obj 29 257 hsl 128 15 0.001 0.4 0 0 knee empty knee -2 -6 0 8 -259157
-1 -1 800 1;
#X obj 28 289 hsl 128 15 0.01 1 0 0 cut empty cut -2 -6 0 8 -259157
-1 -1 2400 1;
#X obj 28 192 loadbang;
#X msg 64 216 0.15;
#X msg 28 215 0.05;
#X obj 168 148 lop~ 8000;
#X text 186 262 If it does that to sine waves ...;
#X text 202 277 just think what it could do to Ethel Merman.;
#X text 301 39 distortion~ uses an internal;
#X text 301 54 lookup function to shape your;
#X text 302 69 wave. "knee" is where the wave;
#X text 303 86 starts to bend and "cut" is the;
#X text 302 104 maximum output value. The wave;
#X text 301 123 is internally rescaled.;
#X connect 0 0 14 0;
#X connect 1 0 0 1;
#X connect 2 0 0 2;
#X connect 3 0 0 0;
#X connect 4 0 3 0;
#X connect 5 0 6 0;
#X connect 5 0 6 1;
#X connect 8 0 7 0;
#X connect 11 0 13 0;
#X connect 11 0 12 0;
#X connect 12 0 10 0;
#X connect 13 0 9 0;
#X connect 14 0 5 0;
