#N canvas 732 505 613 301 10;
#X obj 142 107 epluribus~ 3;
#X obj 223 133 click2float~;
#X obj 142 166 *~ 0.1;
#X obj 142 198 dac~;
#X obj 218 198 hsl 70 12 0 1 0 0 epluribus-gain epluribus-gain-in gain
-2 -8 0 10 -261443 -1 -1 300 1;
#X floatatom 180 148 5 0 0 0 - epluribus-gain -;
#X obj 23 13 cnv 15 160 25 empty empty LyonPotpourri 20 12 1 18 -260097
-204786 0;
#X obj 23 256 cnv 15 300 20 empty empty http://www.sarc.qub.ac.uk/~elyon/
20 12 0 14 -203904 -13381 0;
#X text 29 224 epluribus~ selects the highest absolute-valued sample
from all its inputs \, on a sample by sample basis;
#X msg 321 118 \; pd dsp \$1;
#X obj 320 96 tgl 15 0 empty empty empty 0 -6 0 8 -262144 -1 -1 0 1
;
#X obj 39 50 phasor~ 620;
#X obj 38 73 killdc~;
#X obj 133 73 killdc~;
#X obj 134 50 phasor~ 620.77;
#X obj 246 72 killdc~;
#X floatatom 224 166 5 0 0 0 - - -;
#X text 267 163 selected channel;
#X obj 246 49 phasor~ 600.9;
#X connect 0 0 2 0;
#X connect 0 1 1 0;
#X connect 1 0 16 0;
#X connect 2 0 3 0;
#X connect 2 0 3 1;
#X connect 5 0 2 1;
#X connect 10 0 9 0;
#X connect 11 0 12 0;
#X connect 12 0 0 0;
#X connect 13 0 0 1;
#X connect 14 0 13 0;
#X connect 15 0 0 2;
#X connect 18 0 15 0;
