#N canvas 301 320 775 429 10;
#X floatatom 143 217 5 0 0 0 - - -, f 5;
#X msg 134 19 0.4;
#X msg 212 29 0.03;
#X obj 143 67 sig~ 0.02;
#X obj 143 181 snapshot~;
#X obj 255 132 metro 50;
#X msg 255 100 1;
#X obj 143 136 greater~ 0.1;
#X msg 77 98 top 0.5;
#X msg 95 29 0.6;
#X text 337 65 greater~ compares its input signal to a cutoff value
set by the message "top." Samples with a value greater than "top" result
in a 1 sent to the outlet. Samples less than or equal to "top" send
out a 0;
#X obj 255 66 loadbang;
#X connect 1 0 3 0;
#X connect 2 0 3 0;
#X connect 3 0 7 0;
#X connect 4 0 0 0;
#X connect 5 0 4 0;
#X connect 6 0 5 0;
#X connect 7 0 4 0;
#X connect 8 0 7 0;
#X connect 9 0 3 0;
#X connect 11 0 6 0;
