#N canvas 727 66 1514 994 10;
#X obj 18 529 *~ 0.01;
#X obj 34 99 noise~;
#X obj 78 532 *~ 0.01;
#X msg 1042 191 scramble;
#X msg 337 79 \; pd dsp \$1;
#X obj 337 39 tgl 15 0 empty empty empty 17 7 0 10 -262144 -1 -1 0
1;
#X floatatom 652 234 5 0 0.25 0 - - -, f 5;
#X obj 1036 92 metro 5000;
#X obj 1036 58 tgl 15 0 empty empty empty 17 7 0 10 -262144 -1 -1 0
1;
#X obj 153 532 *~ 0.01;
#X obj 213 535 *~ 0.01;
#X obj 277 536 *~ 0.01;
#X obj 332 534 *~ 0.01;
#X obj 407 534 *~ 0.01;
#X obj 467 537 *~ 0.01;
#X obj 18 636 dac~ 1 2 3 4 5 6 7 8, f 76;
#X text 97 682 osctosplit~ divides a spectrum into 8 separate parts
\, which can then be spatialized. Smooth transitions between spectral
divisions are provided.;
#X floatatom 566 634 5 0 0 0 ramp_phase - -, f 5;
#X msg 750 423 0 188 464 153 34 355 89 328 8 53 5 269 286 136 227 333
16 323 318 452 179 392 187 289 24 52 143 258 359 270 48 17 32 180 86
410 70 184 413 205 40 366 418 91 419 474 8 349 48 346 237 259 39 20
278 505 56 436 0 132 431 144 428 342 1 92 315 82 177 403 196 446 9
401 503 214 250 499 408 422 17 432 117 495 472 3 152 437 25 481 296
36 322 490 171 10 33 376 365 38 140 320 241 138 41 249 7 58 450 348
110 21 49 421 374 483 192 415 253 19 57 57 285 42 509 150 216 55 4
473 173 190 331 404 329 157 12 210 131 141 69 397 480 251 20 465 137
391 90 440 288 470 28 139 174 494 409 381 441 492 36 193 334 56 221
298 103 361 44 466 435 33 282 493 275 424 52 112 336 479 151 260 263
370 60 477 37 460 76 502 129 148 3 500 51 485 257 387 62 109 11 16
224 305 166 303 447 276 19 145 165 248 272 414 25 454 27 489 170 324
356 498 487 233 35 439 299 378 412 268 50 398 43 116 420 325 468 406
97 120 51 504 46 121 43 200 273 135 59 367 284 426 416 95 125 363 402
390 386 158 40 475 172 35 67 400 222 280 4 178 96 142 209 389 388 307
168 496 310 226 130 384 375 488 478 74 462 301 330 405 223 54 287 247
108 30 482 262 220 350 102 507 100 183 290 162 448 309 497 189 327
357 341 300 230 149 340 78 147 128 5 185 18 176 123 234 385 429 13
484 423 105 351 99 81 283 21 28 23 93 394 199 444 238 29 292 232 12
41 101 60 395 37 213 111 159 195 382 2 380 45 281 360 344 204 261 9
182 53 312 407 246 218 164 455 11 61 225 252 314 308 107 217 438 6
362 32 371 501 347 231 84 14 186 207 306 80 302 94 451 22 337 235 31
244 430 265 66 30 319 202 211 115 83 228 106 38 353 127 201 491 321
461 511 46 486 64 354 379 449 411 399 54 456 163 243 239 44 457 240
62 425 294 68 291 316 191 126 7 417 304 277 317 434 59 427 15 161 87
469 119 267 311 122 23 293 14 343 77 256 61 396 31 476 433 508 459
75 352 338 39 506 383 229 372 467 65 445 47 47 24 255 22 13 442 368
55 453 471 175 181 297 279 295 63 118 393 73 167 271 373 206;
#X msg 732 119 showstate;
#X obj 1043 235 s octosplit-help-msgs;
#X obj 54 231 r octosplit-help-msgs;
#X msg 849 103 spiral;
#X obj 607 213 hsl 128 15 0 0.25 0 0 empty empty gain -2 -8 0 10 -204800
-1 -1 7300 1;
#X msg 753 60 squantize 8;
#X obj 814 256 hsl 128 15 0 1 0 0 empty empty manual_override_controller
-2 -8 0 10 -204786 -1 -1 0 1;
#X obj 1118 159 loadbang;
#X msg 1118 188 ramptime 5000;
#X msg 1250 197 manual_override \$1;
#X obj 1250 159 tgl 15 0 empty empty empty 17 7 0 10 -262144 -1 -1
1 1;
#N canvas 661 415 1321 870 octosplit-rfft 0;
#X obj 33 76 inlet~;
#X obj 34 461 outlet~;
#X obj 33 108 windowvec~;
#X obj 33 146 rfft~, f 6;
#X obj 33 181 cartopol~;
#X obj 34 335 poltocar~;
#X obj 34 365 rifft~;
#X obj 34 428 windowvec~;
#X obj 34 395 *~ 0;
#X obj 929 163 *;
#X msg 881 85 1 1024 8;
#X obj 881 116 unpack f f f;
#X obj 881 195 /;
#X floatatom 881 227 12 0 0 0 - - -, f 12;
#X text 789 226 rescale factor;
#X obj 881 54 loadbang;
#X obj 880 256 s \$0-rescale;
#X obj 68 385 r \$0-rescale;
#X obj 161 469 outlet~;
#X obj 161 343 poltocar~;
#X obj 161 373 rifft~;
#X obj 161 436 windowvec~;
#X obj 161 403 *~ 0;
#X obj 195 393 r \$0-rescale;
#X obj 280 469 outlet~;
#X obj 280 343 poltocar~;
#X obj 280 373 rifft~;
#X obj 280 436 windowvec~;
#X obj 280 403 *~ 0;
#X obj 314 393 r \$0-rescale;
#X obj 407 477 outlet~;
#X obj 407 351 poltocar~;
#X obj 407 381 rifft~;
#X obj 407 444 windowvec~;
#X obj 407 411 *~ 0;
#X obj 441 401 r \$0-rescale;
#X obj 537 479 outlet~;
#X obj 537 353 poltocar~;
#X obj 537 383 rifft~;
#X obj 537 446 windowvec~;
#X obj 537 413 *~ 0;
#X obj 571 403 r \$0-rescale;
#X obj 664 487 outlet~;
#X obj 664 361 poltocar~;
#X obj 664 391 rifft~;
#X obj 664 454 windowvec~;
#X obj 664 421 *~ 0;
#X obj 698 411 r \$0-rescale;
#X obj 783 487 outlet~;
#X obj 783 361 poltocar~;
#X obj 783 391 rifft~;
#X obj 783 454 windowvec~;
#X obj 783 421 *~ 0;
#X obj 817 411 r \$0-rescale;
#X obj 910 495 outlet~;
#X obj 910 369 poltocar~;
#X obj 910 399 rifft~;
#X obj 910 462 windowvec~;
#X obj 910 429 *~ 0;
#X obj 944 419 r \$0-rescale;
#X obj 198 73 inlet;
#X obj 1185 450 outlet;
#X msg 1221 490 set \$1 \$2 \$3 \$4 \$5 \$6 \$7 \$8 \$9 \$10 \$11 \$12
\$13 \$14 \$15 \$16 \$17 \$18 \$19 \$20 \$21 \$22 \$23 \$24 \$25 \$26
\$27 \$28 \$29 \$30 \$31 \$32 \$33 \$34 \$35 \$36 \$37 \$38 \$39 \$40
\$41 \$42 \$43 \$44 \$45 \$46 \$47 \$48 \$49 \$50 \$51 \$52 \$53 \$54
\$55 \$56 \$57 \$58 \$59 \$60 \$61 \$62 \$63 \$64 \$65 \$66 \$67 \$68
\$69 \$70 \$71 \$72 \$73 \$74 \$75 \$76 \$77 \$78 \$79 \$80 \$81 \$82
\$83 \$84 \$85 \$86 \$87 \$88 \$89 \$90 \$91 \$92 \$93 \$94 \$95 \$96
\$97 \$98 \$99 \$100 \$101 \$102 \$103 \$104 \$105 \$106 \$107 \$108
\$109 \$110 \$111 \$112 \$113 \$114 \$115 \$116 \$117 \$118 \$119 \$120
\$121 \$122 \$123 \$124 \$125 \$126 \$127 \$128 \$129 \$130 \$131 \$132
\$133 \$134 \$135 \$136 \$137 \$138 \$139 \$140 \$141 \$142 \$143 \$144
\$145 \$146 \$147 \$148 \$149 \$150 \$151 \$152 \$153 \$154 \$155 \$156
\$157 \$158 \$159 \$160 \$161 \$162 \$163 \$164 \$165 \$166 \$167 \$168
\$169 \$170 \$171 \$172 \$173 \$174 \$175 \$176 \$177 \$178 \$179 \$180
\$181 \$182 \$183 \$184 \$185 \$186 \$187 \$188 \$189 \$190 \$191 \$192
\$193 \$194 \$195 \$196 \$197 \$198 \$199 \$200 \$201 \$202 \$203 \$204
\$205 \$206 \$207 \$208 \$209 \$210 \$211 \$212 \$213 \$214 \$215 \$216
\$217 \$218 \$219 \$220 \$221 \$222 \$223 \$224 \$225 \$226 \$227 \$228
\$229 \$230 \$231 \$232 \$233 \$234 \$235 \$236 \$237 \$238 \$239 \$240
\$241 \$242 \$243 \$244 \$245 \$246 \$247 \$248 \$249 \$250 \$251 \$252
\$253 \$254 \$255 \$256 \$257 \$258 \$259 \$260 \$261 \$262 \$263 \$264
\$265 \$266 \$267 \$268 \$269 \$270 \$271 \$272 \$273 \$274 \$275 \$276
\$277 \$278 \$279 \$280 \$281 \$282 \$283 \$284 \$285 \$286 \$287 \$288
\$289 \$290 \$291 \$292 \$293 \$294 \$295 \$296 \$297 \$298 \$299 \$300
\$301 \$302 \$303 \$304 \$305 \$306 \$307 \$308 \$309 \$310 \$311 \$312
\$313 \$314 \$315 \$316 \$317 \$318 \$319 \$320 \$321 \$322 \$323 \$324
\$325 \$326 \$327 \$328 \$329 \$330 \$331 \$332 \$333 \$334 \$335 \$336
\$337 \$338 \$339 \$340 \$341 \$342 \$343 \$344 \$345 \$346 \$347 \$348
\$349 \$350 \$351 \$352 \$353 \$354 \$355 \$356 \$357 \$358 \$359 \$360
\$361 \$362 \$363 \$364 \$365 \$366 \$367 \$368 \$369 \$370 \$371 \$372
\$373 \$374 \$375 \$376 \$377 \$378 \$379 \$380 \$381 \$382 \$383 \$384
\$385 \$386 \$387 \$388 \$389 \$390 \$391 \$392 \$393 \$394 \$395 \$396
\$397 \$398 \$399 \$400 \$401 \$402 \$403 \$404 \$405 \$406 \$407 \$408
\$409 \$410 \$411 \$412 \$413 \$414 \$415 \$416 \$417 \$418 \$419 \$420
\$421 \$422 \$423 \$424 \$425 \$426 \$427 \$428 \$429 \$430 \$431 \$432
\$433 \$434 \$435 \$436 \$437 \$438 \$439 \$440 \$441 \$442 \$443 \$444
\$445 \$446 \$447 \$448 \$449 \$450 \$451 \$452 \$453 \$454 \$455 \$456
\$457 \$458 \$459 \$460 \$461 \$462 \$463 \$464 \$465 \$466 \$467 \$468
\$469 \$470 \$471 \$472 \$473 \$474 \$475 \$476 \$477 \$478 \$479 \$480
\$481 \$482 \$483 \$484 \$485 \$486 \$487 \$488 \$489 \$490 \$491 \$492
\$493 \$494 \$495 \$496 \$497 \$498 \$499 \$500 \$501 \$502 \$503 \$504
\$505 \$506 \$507 \$508 \$509 \$510 \$511 \$512;
#X obj 1109 1044 outlet, f 93;
#X obj 35 282 octosplit~, f 159;
#X obj 1101 139 inlet;
#X obj 34 531 block~ 1024 8, f 14;
#X obj 425 89 inlet;
#X obj 571 101 inlet;
#X text 131 533 set FFT size to 1024 \, with overlap factor of 8;
#X connect 0 0 2 0;
#X connect 2 0 3 0;
#X connect 3 0 4 0;
#X connect 3 1 4 1;
#X connect 4 0 64 0;
#X connect 4 1 64 1;
#X connect 5 0 6 0;
#X connect 5 1 6 1;
#X connect 6 0 8 0;
#X connect 7 0 1 0;
#X connect 8 0 7 0;
#X connect 9 0 12 1;
#X connect 10 0 11 0;
#X connect 11 0 12 0;
#X connect 11 1 9 0;
#X connect 11 2 9 1;
#X connect 12 0 13 0;
#X connect 13 0 16 0;
#X connect 15 0 10 0;
#X connect 17 0 8 1;
#X connect 19 0 20 0;
#X connect 19 1 20 1;
#X connect 20 0 22 0;
#X connect 21 0 18 0;
#X connect 22 0 21 0;
#X connect 23 0 22 1;
#X connect 25 0 26 0;
#X connect 25 1 26 1;
#X connect 26 0 28 0;
#X connect 27 0 24 0;
#X connect 28 0 27 0;
#X connect 29 0 28 1;
#X connect 31 0 32 0;
#X connect 31 1 32 1;
#X connect 32 0 34 0;
#X connect 33 0 30 0;
#X connect 34 0 33 0;
#X connect 35 0 34 1;
#X connect 37 0 38 0;
#X connect 37 1 38 1;
#X connect 38 0 40 0;
#X connect 39 0 36 0;
#X connect 40 0 39 0;
#X connect 41 0 40 1;
#X connect 43 0 44 0;
#X connect 43 1 44 1;
#X connect 44 0 46 0;
#X connect 45 0 42 0;
#X connect 46 0 45 0;
#X connect 47 0 46 1;
#X connect 49 0 50 0;
#X connect 49 1 50 1;
#X connect 50 0 52 0;
#X connect 51 0 48 0;
#X connect 52 0 51 0;
#X connect 53 0 52 1;
#X connect 55 0 56 0;
#X connect 55 1 56 1;
#X connect 56 0 58 0;
#X connect 57 0 54 0;
#X connect 58 0 57 0;
#X connect 59 0 58 1;
#X connect 60 0 64 0;
#X connect 62 0 63 0;
#X connect 64 0 5 0;
#X connect 64 1 5 1;
#X connect 64 2 19 0;
#X connect 64 3 19 1;
#X connect 64 4 25 0;
#X connect 64 5 25 1;
#X connect 64 6 31 0;
#X connect 64 7 31 1;
#X connect 64 8 37 0;
#X connect 64 9 37 1;
#X connect 64 10 43 0;
#X connect 64 11 43 1;
#X connect 64 12 49 0;
#X connect 64 13 49 1;
#X connect 64 14 55 0;
#X connect 64 15 55 1;
#X connect 64 16 62 0;
#X connect 64 17 61 0;
#X connect 65 0 64 4;
#X connect 67 0 64 2;
#X connect 68 0 64 3;
#X restore 34 277 pd octosplit-rfft, f 79;
#X obj 198 170 hsl 128 15 0 1 0 0 empty empty table_offset -2 -8 0
10 -204786 -1 -1 3100 1;
#X obj 355 223 hsl 128 15 0 1 0 0 empty empty bin_offset -2 -8 0 10
-204786 -1 -1 0 1;
#X text 785 401 Current mapping of bins;
#X text 76 97 source sound;
#X text 1107 88 use for constantly changing spectra;
#X connect 0 0 15 0;
#X connect 1 0 30 0;
#X connect 2 0 15 1;
#X connect 3 0 20 0;
#X connect 5 0 4 0;
#X connect 6 0 2 1;
#X connect 6 0 0 1;
#X connect 6 0 10 1;
#X connect 6 0 9 1;
#X connect 6 0 11 1;
#X connect 6 0 12 1;
#X connect 6 0 13 1;
#X connect 6 0 14 1;
#X connect 7 0 3 0;
#X connect 8 0 7 0;
#X connect 9 0 15 2;
#X connect 10 0 15 3;
#X connect 11 0 15 4;
#X connect 12 0 15 5;
#X connect 13 0 15 6;
#X connect 14 0 15 7;
#X connect 19 0 20 0;
#X connect 21 0 30 1;
#X connect 22 0 20 0;
#X connect 23 0 6 0;
#X connect 24 0 20 0;
#X connect 25 0 30 4;
#X connect 26 0 27 0;
#X connect 27 0 20 0;
#X connect 28 0 20 0;
#X connect 29 0 28 0;
#X connect 30 0 0 0;
#X connect 30 1 2 0;
#X connect 30 2 9 0;
#X connect 30 3 10 0;
#X connect 30 4 11 0;
#X connect 30 5 12 0;
#X connect 30 6 13 0;
#X connect 30 7 14 0;
#X connect 30 8 18 0;
#X connect 30 9 17 0;
#X connect 31 0 30 2;
#X connect 32 0 30 3;
