#N canvas 23 34 1440 800 10;
#X obj 18 529 *~ 0.01;
#X obj 34 99 noise~;
#X obj 78 532 *~ 0.01;
#X msg 1042 191 scramble;
#X msg 337 79 \; pd dsp \$1;
#X obj 337 39 tgl 15 0 empty empty empty 17 7 0 10 -262144 -1 -1 1
1;
#X floatatom 707 344 5 0 0.25 0 - - -, f 5;
#X obj 1036 92 metro 5000;
#X obj 1036 58 tgl 15 0 empty empty empty 17 7 0 10 -262144 -1 -1 0
1;
#X obj 153 532 *~ 0.01;
#X obj 213 535 *~ 0.01;
#X obj 277 536 *~ 0.01;
#X obj 332 534 *~ 0.01;
#X obj 407 534 *~ 0.01;
#X obj 467 537 *~ 0.01;
#X obj 18 636 dac~ 1 2 3 4 5 6 7 8, f 76;
#X floatatom 610 311 5 0 0 0 ramp_phase - -, f 5;
#X msg 576 437 164 381 392 236 125 165 86 277 4 261 229 477 268 286
365 171 170 181 143 375 358 451 460 466 2 386 422 50 313 276 484 135
361 452 302 321 488 81 5 401 310 487 316 506 138 434 44 370 504 459
244 360 503 0 319 160 79 232 471 172 324 388 102 185 437 251 479 177
28 444 269 59 17 507 475 87 184 220 458 115 412 110 144 252 399 190
353 495 126 114 30 281 14 21 383 223 436 291 70 389 84 371 439 211
65 334 394 332 250 511 320 363 397 411 335 158 221 31 152 128 472 430
402 311 354 253 404 233 398 121 124 27 35 486 440 133 500 283 238 150
377 19 414 163 438 274 231 33 348 344 141 228 301 496 469 391 285 118
382 226 481 347 182 56 80 337 278 73 193 207 480 16 293 12 331 325
305 43 74 122 154 117 510 197 243 409 107 49 155 225 427 200 428 482
429 116 36 199 67 127 61 97 417 263 328 92 10 205 198 188 145 262 174
457 431 351 104 357 341 68 267 210 204 206 24 60 415 292 356 63 6 456
455 493 219 464 387 77 54 214 151 136 166 308 149 176 470 105 300 307
491 227 55 350 304 418 279 169 192 178 297 287 167 271 32 52 9 376
41 1 83 290 443 492 230 441 272 330 340 461 260 336 403 66 38 296 385
139 384 433 448 298 51 224 94 45 119 29 186 405 15 20 425 314 153 82
191 249 364 179 246 435 248 64 247 323 426 189 343 378 497 8 317 509
483 373 175 129 419 410 372 23 132 374 40 369 93 489 162 42 362 476
352 396 349 318 329 131 103 327 406 108 473 245 111 312 213 449 78
408 499 423 34 309 264 447 123 400 37 62 322 380 53 173 217 333 235
208 218 25 478 69 46 98 113 275 420 75 215 454 282 18 474 156 216 355
501 505 490 161 240 421 183 13 390 288 265 239 3 445 259 498 112 367
508 209 237 368 195 159 306 359 241 22 91 393 339 57 180 366 106 148
254 299 99 196 342 258 315 468 147 284 202 48 494 256 90 270 432 101
255 345 89 413 120 26 130 109 289 453 76 485 326 39 88 212 463 462
137 266 134 146 346 407 187 194 502 7 450 442 338 280 58 140 465 395
446 424 100 11 273 95 47 168 71 294 257 379 416 201 96 72 242 234 85
157 222 467 295 142 203 303;
#X msg 732 119 showstate;
#X msg 849 103 spiral;
#X obj 662 323 hsl 128 15 0 0.25 0 0 empty empty gain -2 -8 0 10 -204800
-1 -1 12700 1;
#X msg 753 60 squantize 8;
#X obj 419 233 hsl 128 15 0 1 0 0 empty empty manual_override_controller
-2 -8 0 10 -204786 -1 -1 12700 1;
#X obj 1118 159 loadbang;
#X msg 1118 188 ramptime 5000;
#X msg 1250 197 manual_override \$1;
#X obj 1250 159 tgl 15 0 empty empty empty 17 7 0 10 -262144 -1 -1
0 1;
#X obj 385 152 hsl 128 15 0 1 0 0 empty empty table_offset -2 -8 0
10 -204786 -1 -1 0 1;
#X obj 386 194 hsl 128 15 0 1 0 0 empty empty bin_offset -2 -8 0 10
-204786 -1 -1 0 1;
#X text 680 412 Current mapping of bins;
#X text 76 97 source sound;
#X text 1107 88 use for constantly changing spectra;
#X msg 945 118 bypass \$1;
#X obj 944 68 tgl 15 0 empty empty empty 17 7 0 10 -262144 -1 -1 0
1;
#X msg 27 495 0.25;
#X text 97 682 splitspect~ divides a spectrum into N separate parts
(N must be a power of 2 \, less than the FFT size) \, which can then
be spatialized. Smooth transitions between spectral divisions are provided.
;
#N canvas 120 22 1321 800 splitspect-rfft 1;
#X obj 33 76 inlet~;
#X obj 34 461 outlet~;
#X obj 33 108 windowvec~;
#X obj 33 146 rfft~, f 6;
#X obj 33 181 cartopol~;
#X obj 34 335 poltocar~;
#X obj 34 365 rifft~;
#X obj 34 428 windowvec~;
#X obj 34 395 *~ 0;
#X obj 929 163 *;
#X msg 881 85 1 1024 8;
#X obj 881 116 unpack f f f;
#X obj 881 195 /;
#X floatatom 881 227 12 0 0 0 - - -, f 12;
#X text 789 226 rescale factor;
#X obj 881 54 loadbang;
#X obj 880 256 s \$0-rescale;
#X obj 68 385 r \$0-rescale;
#X obj 161 469 outlet~;
#X obj 161 343 poltocar~;
#X obj 161 373 rifft~;
#X obj 161 436 windowvec~;
#X obj 161 403 *~ 0;
#X obj 195 393 r \$0-rescale;
#X obj 280 469 outlet~;
#X obj 280 343 poltocar~;
#X obj 280 373 rifft~;
#X obj 280 436 windowvec~;
#X obj 280 403 *~ 0;
#X obj 314 393 r \$0-rescale;
#X obj 407 477 outlet~;
#X obj 407 351 poltocar~;
#X obj 407 381 rifft~;
#X obj 407 444 windowvec~;
#X obj 407 411 *~ 0;
#X obj 441 401 r \$0-rescale;
#X obj 537 479 outlet~;
#X obj 537 353 poltocar~;
#X obj 537 383 rifft~;
#X obj 537 446 windowvec~;
#X obj 537 413 *~ 0;
#X obj 571 403 r \$0-rescale;
#X obj 664 487 outlet~;
#X obj 664 361 poltocar~;
#X obj 664 391 rifft~;
#X obj 664 454 windowvec~;
#X obj 664 421 *~ 0;
#X obj 698 411 r \$0-rescale;
#X obj 783 487 outlet~;
#X obj 783 361 poltocar~;
#X obj 783 391 rifft~;
#X obj 783 454 windowvec~;
#X obj 783 421 *~ 0;
#X obj 817 411 r \$0-rescale;
#X obj 910 495 outlet~;
#X obj 910 369 poltocar~;
#X obj 910 399 rifft~;
#X obj 910 462 windowvec~;
#X obj 910 429 *~ 0;
#X obj 944 419 r \$0-rescale;
#X obj 198 73 inlet;
#X obj 1185 450 outlet;
#X msg 1221 490 set \$1 \$2 \$3 \$4 \$5 \$6 \$7 \$8 \$9 \$10 \$11 \$12
\$13 \$14 \$15 \$16 \$17 \$18 \$19 \$20 \$21 \$22 \$23 \$24 \$25 \$26
\$27 \$28 \$29 \$30 \$31 \$32 \$33 \$34 \$35 \$36 \$37 \$38 \$39 \$40
\$41 \$42 \$43 \$44 \$45 \$46 \$47 \$48 \$49 \$50 \$51 \$52 \$53 \$54
\$55 \$56 \$57 \$58 \$59 \$60 \$61 \$62 \$63 \$64 \$65 \$66 \$67 \$68
\$69 \$70 \$71 \$72 \$73 \$74 \$75 \$76 \$77 \$78 \$79 \$80 \$81 \$82
\$83 \$84 \$85 \$86 \$87 \$88 \$89 \$90 \$91 \$92 \$93 \$94 \$95 \$96
\$97 \$98 \$99 \$100 \$101 \$102 \$103 \$104 \$105 \$106 \$107 \$108
\$109 \$110 \$111 \$112 \$113 \$114 \$115 \$116 \$117 \$118 \$119 \$120
\$121 \$122 \$123 \$124 \$125 \$126 \$127 \$128 \$129 \$130 \$131 \$132
\$133 \$134 \$135 \$136 \$137 \$138 \$139 \$140 \$141 \$142 \$143 \$144
\$145 \$146 \$147 \$148 \$149 \$150 \$151 \$152 \$153 \$154 \$155 \$156
\$157 \$158 \$159 \$160 \$161 \$162 \$163 \$164 \$165 \$166 \$167 \$168
\$169 \$170 \$171 \$172 \$173 \$174 \$175 \$176 \$177 \$178 \$179 \$180
\$181 \$182 \$183 \$184 \$185 \$186 \$187 \$188 \$189 \$190 \$191 \$192
\$193 \$194 \$195 \$196 \$197 \$198 \$199 \$200 \$201 \$202 \$203 \$204
\$205 \$206 \$207 \$208 \$209 \$210 \$211 \$212 \$213 \$214 \$215 \$216
\$217 \$218 \$219 \$220 \$221 \$222 \$223 \$224 \$225 \$226 \$227 \$228
\$229 \$230 \$231 \$232 \$233 \$234 \$235 \$236 \$237 \$238 \$239 \$240
\$241 \$242 \$243 \$244 \$245 \$246 \$247 \$248 \$249 \$250 \$251 \$252
\$253 \$254 \$255 \$256 \$257 \$258 \$259 \$260 \$261 \$262 \$263 \$264
\$265 \$266 \$267 \$268 \$269 \$270 \$271 \$272 \$273 \$274 \$275 \$276
\$277 \$278 \$279 \$280 \$281 \$282 \$283 \$284 \$285 \$286 \$287 \$288
\$289 \$290 \$291 \$292 \$293 \$294 \$295 \$296 \$297 \$298 \$299 \$300
\$301 \$302 \$303 \$304 \$305 \$306 \$307 \$308 \$309 \$310 \$311 \$312
\$313 \$314 \$315 \$316 \$317 \$318 \$319 \$320 \$321 \$322 \$323 \$324
\$325 \$326 \$327 \$328 \$329 \$330 \$331 \$332 \$333 \$334 \$335 \$336
\$337 \$338 \$339 \$340 \$341 \$342 \$343 \$344 \$345 \$346 \$347 \$348
\$349 \$350 \$351 \$352 \$353 \$354 \$355 \$356 \$357 \$358 \$359 \$360
\$361 \$362 \$363 \$364 \$365 \$366 \$367 \$368 \$369 \$370 \$371 \$372
\$373 \$374 \$375 \$376 \$377 \$378 \$379 \$380 \$381 \$382 \$383 \$384
\$385 \$386 \$387 \$388 \$389 \$390 \$391 \$392 \$393 \$394 \$395 \$396
\$397 \$398 \$399 \$400 \$401 \$402 \$403 \$404 \$405 \$406 \$407 \$408
\$409 \$410 \$411 \$412 \$413 \$414 \$415 \$416 \$417 \$418 \$419 \$420
\$421 \$422 \$423 \$424 \$425 \$426 \$427 \$428 \$429 \$430 \$431 \$432
\$433 \$434 \$435 \$436 \$437 \$438 \$439 \$440 \$441 \$442 \$443 \$444
\$445 \$446 \$447 \$448 \$449 \$450 \$451 \$452 \$453 \$454 \$455 \$456
\$457 \$458 \$459 \$460 \$461 \$462 \$463 \$464 \$465 \$466 \$467 \$468
\$469 \$470 \$471 \$472 \$473 \$474 \$475 \$476 \$477 \$478 \$479 \$480
\$481 \$482 \$483 \$484 \$485 \$486 \$487 \$488 \$489 \$490 \$491 \$492
\$493 \$494 \$495 \$496 \$497 \$498 \$499 \$500 \$501 \$502 \$503 \$504
\$505 \$506 \$507 \$508 \$509 \$510 \$511 \$512;
#X obj 1109 1044 outlet, f 93;
#X obj 1101 139 inlet;
#X obj 34 531 block~ 1024 8, f 14;
#X obj 425 89 inlet;
#X obj 571 101 inlet;
#X text 131 533 set FFT size to 1024 \, with overlap factor of 8,
f 79;
#X obj 35 282 spectsplit~ 8, f 94;
#X connect 0 0 2 0;
#X connect 2 0 3 0;
#X connect 3 0 4 0;
#X connect 3 1 4 1;
#X connect 4 0 69 0;
#X connect 4 1 69 1;
#X connect 5 0 6 0;
#X connect 5 1 6 1;
#X connect 6 0 8 0;
#X connect 7 0 1 0;
#X connect 8 0 7 0;
#X connect 9 0 12 1;
#X connect 10 0 11 0;
#X connect 11 0 12 0;
#X connect 11 1 9 0;
#X connect 11 2 9 1;
#X connect 12 0 13 0;
#X connect 13 0 16 0;
#X connect 15 0 10 0;
#X connect 17 0 8 1;
#X connect 19 0 20 0;
#X connect 19 1 20 1;
#X connect 20 0 22 0;
#X connect 21 0 18 0;
#X connect 22 0 21 0;
#X connect 23 0 22 1;
#X connect 25 0 26 0;
#X connect 25 1 26 1;
#X connect 26 0 28 0;
#X connect 27 0 24 0;
#X connect 28 0 27 0;
#X connect 29 0 28 1;
#X connect 31 0 32 0;
#X connect 31 1 32 1;
#X connect 32 0 34 0;
#X connect 33 0 30 0;
#X connect 34 0 33 0;
#X connect 35 0 34 1;
#X connect 37 0 38 0;
#X connect 37 1 38 1;
#X connect 38 0 40 0;
#X connect 39 0 36 0;
#X connect 40 0 39 0;
#X connect 41 0 40 1;
#X connect 43 0 44 0;
#X connect 43 1 44 1;
#X connect 44 0 46 0;
#X connect 45 0 42 0;
#X connect 46 0 45 0;
#X connect 47 0 46 1;
#X connect 49 0 50 0;
#X connect 49 1 50 1;
#X connect 50 0 52 0;
#X connect 51 0 48 0;
#X connect 52 0 51 0;
#X connect 53 0 52 1;
#X connect 55 0 56 0;
#X connect 55 1 56 1;
#X connect 56 0 58 0;
#X connect 57 0 54 0;
#X connect 58 0 57 0;
#X connect 59 0 58 1;
#X connect 60 0 69 0;
#X connect 62 0 63 0;
#X connect 64 0 69 4;
#X connect 66 0 69 2;
#X connect 67 0 69 3;
#X connect 69 0 5 0;
#X connect 69 1 5 1;
#X connect 69 2 19 0;
#X connect 69 3 19 1;
#X connect 69 4 25 0;
#X connect 69 5 25 1;
#X connect 69 6 31 0;
#X connect 69 7 31 1;
#X connect 69 8 37 0;
#X connect 69 9 37 1;
#X connect 69 10 43 0;
#X connect 69 11 43 1;
#X connect 69 12 49 0;
#X connect 69 13 49 1;
#X connect 69 14 55 0;
#X connect 69 15 55 1;
#X connect 69 16 62 0;
#X connect 69 17 61 0;
#X restore 34 277 pd splitspect-rfft, f 85;
#X obj 54 231 r splitspect-help-msgs;
#X obj 1043 235 s splitspect-help-msgs;
#X connect 0 0 15 0;
#X connect 1 0 36 0;
#X connect 2 0 15 1;
#X connect 3 0 38 0;
#X connect 5 0 4 0;
#X connect 6 0 2 1;
#X connect 6 0 0 1;
#X connect 6 0 10 1;
#X connect 6 0 9 1;
#X connect 6 0 11 1;
#X connect 6 0 12 1;
#X connect 6 0 13 1;
#X connect 6 0 14 1;
#X connect 7 0 3 0;
#X connect 8 0 7 0;
#X connect 9 0 15 2;
#X connect 10 0 15 3;
#X connect 11 0 15 4;
#X connect 12 0 15 5;
#X connect 13 0 15 6;
#X connect 14 0 15 7;
#X connect 18 0 38 0;
#X connect 19 0 38 0;
#X connect 20 0 6 0;
#X connect 21 0 38 0;
#X connect 22 0 36 4;
#X connect 23 0 24 0;
#X connect 24 0 38 0;
#X connect 25 0 38 0;
#X connect 26 0 25 0;
#X connect 27 0 36 2;
#X connect 28 0 36 3;
#X connect 32 0 38 0;
#X connect 33 0 32 0;
#X connect 34 0 0 1;
#X connect 36 0 0 0;
#X connect 36 1 2 0;
#X connect 36 2 9 0;
#X connect 36 3 10 0;
#X connect 36 4 11 0;
#X connect 36 5 12 0;
#X connect 36 6 13 0;
#X connect 36 7 14 0;
#X connect 36 8 17 0;
#X connect 36 9 16 0;
#X connect 37 0 36 1;
