#N canvas 789 604 511 402 10;
#X msg 288 111 \; pd dsp \$1;
#X obj 288 73 tgl 15 0 empty empty empty 17 7 0 10 -262144 -1 -1 0
1;
#X obj 74 117 osc~ 340;
#X obj 74 283 *~ 0.01;
#X obj 149 282 *~ 0.01;
#X obj 74 338 dac~;
#X obj 111 168 osc~ 546;
#X obj 92 141 osc~ 739;
#X obj 74 246 shoehorn~ 5 2;
#X obj 130 193 osc~ 1666;
#X obj 149 216 osc~ 665;
#X text 64 22 shoehorn~ collapses an arbitrary number of input channels
into an arbitrary number of output channels \, by spacing them from
left to right with equal power panning.;
#X connect 1 0 0 0;
#X connect 2 0 8 0;
#X connect 3 0 5 0;
#X connect 4 0 5 1;
#X connect 6 0 8 2;
#X connect 7 0 8 1;
#X connect 8 0 3 0;
#X connect 8 1 4 0;
#X connect 9 0 8 3;
#X connect 10 0 8 4;
