#N canvas 477 22 859 763 10;
#X obj 18 529 *~ 0.01;
#X obj 34 99 noise~;
#X obj 78 532 *~ 0.01;
#X msg 337 79 \; pd dsp \$1;
#X obj 337 39 tgl 15 0 empty empty empty 17 7 0 10 -262144 -1 -1 0
1;
#X floatatom 707 344 5 0 0.25 0 - - -, f 5;
#X obj 153 532 *~ 0.01;
#X obj 213 535 *~ 0.01;
#X floatatom 610 311 5 0 0 0 ramp_phase - -, f 5;
#X obj 662 323 hsl 128 15 0 0.25 0 0 empty empty gain -2 -8 0 10 -204800
-1 -1 0 1;
#X obj 419 233 hsl 128 15 0 1 0 0 empty empty manual_override_controller
-2 -8 0 10 -204786 -1 -1 12700 1;
#X obj 385 152 hsl 128 15 0 1 0 0 empty empty table_offset -2 -8 0
10 -204786 -1 -1 0 1;
#X obj 386 194 hsl 128 15 0 1 0 0 empty empty bin_offset -2 -8 0 10
-204786 -1 -1 0 1;
#X text 680 412 Current mapping of bins;
#X text 76 97 source sound;
#X msg 27 495 0.25;
#X text 97 682 splitspect~ divides a spectrum into N separate parts
(N must be a power of 2 \, less than the FFT size) \, which can then
be spatialized. Smooth transitions between spectral divisions are provided.
;
#N canvas 728 40 673 783 splitspect-rfft 0;
#X obj 33 76 inlet~;
#X obj 34 461 outlet~;
#X obj 33 108 windowvec~;
#X obj 33 146 rfft~, f 6;
#X obj 33 181 cartopol~;
#X obj 34 335 poltocar~;
#X obj 34 365 rifft~;
#X obj 34 428 windowvec~;
#X obj 34 395 *~ 0;
#X obj 221 625 *;
#X msg 173 547 1 1024 8;
#X obj 173 578 unpack f f f;
#X obj 173 657 /;
#X floatatom 173 689 12 0 0 0 - - -, f 12;
#X text 81 688 rescale factor;
#X obj 173 516 loadbang;
#X obj 172 718 s \$0-rescale;
#X obj 68 385 r \$0-rescale;
#X obj 161 469 outlet~;
#X obj 161 343 poltocar~;
#X obj 161 373 rifft~;
#X obj 161 436 windowvec~;
#X obj 161 403 *~ 0;
#X obj 195 393 r \$0-rescale;
#X obj 280 469 outlet~;
#X obj 280 343 poltocar~;
#X obj 280 373 rifft~;
#X obj 280 436 windowvec~;
#X obj 280 403 *~ 0;
#X obj 314 393 r \$0-rescale;
#X obj 407 477 outlet~;
#X obj 407 351 poltocar~;
#X obj 407 381 rifft~;
#X obj 407 444 windowvec~;
#X obj 407 411 *~ 0;
#X obj 441 401 r \$0-rescale;
#X obj 198 73 inlet;
#X obj 614 514 outlet;
#X obj 481 80 inlet;
#X obj 34 531 block~ 1024 8, f 14;
#X obj 259 72 inlet;
#X obj 341 75 inlet;
#X obj 35 282 spectsplit~ 4, f 85;
#N canvas 56 22 418 520 showme 1;
#X obj 12 7 inlet;
#X msg 12 49 0 4 8 12 16 20 24 28 32 36 40 44 48 52 56 60 64 68 72
76 80 84 88 92 96 100 104 108 112 116 120 124 128 132 136 140 144 148
152 156 160 164 168 172 176 180 184 188 192 196 200 204 208 212 216
220 224 228 232 236 240 244 248 252 256 260 264 268 272 276 280 284
288 292 296 300 304 308 312 316 320 324 328 332 336 340 344 348 352
356 360 364 368 372 376 380 384 388 392 396 400 404 408 412 416 420
424 428 432 436 440 444 448 452 456 460 464 468 472 476 480 484 488
492 496 500 504 508 1 5 9 13 17 21 25 29 33 37 41 45 49 53 57 61 65
69 73 77 81 85 89 93 97 101 105 109 113 117 121 125 129 133 137 141
145 149 153 157 161 165 169 173 177 181 185 189 193 197 201 205 209
213 217 221 225 229 233 237 241 245 249 253 257 261 265 269 273 277
281 285 289 293 297 301 305 309 313 317 321 325 329 333 337 341 345
349 353 357 361 365 369 373 377 381 385 389 393 397 401 405 409 413
417 421 425 429 433 437 441 445 449 453 457 461 465 469 473 477 481
485 489 493 497 501 505 509 2 6 10 14 18 22 26 30 34 38 42 46 50 54
58 62 66 70 74 78 82 86 90 94 98 102 106 110 114 118 122 126 130 134
138 142 146 150 154 158 162 166 170 174 178 182 186 190 194 198 202
206 210 214 218 222 226 230 234 238 242 246 250 254 258 262 266 270
274 278 282 286 290 294 298 302 306 310 314 318 322 326 330 334 338
342 346 350 354 358 362 366 370 374 378 382 386 390 394 398 402 406
410 414 418 422 426 430 434 438 442 446 450 454 458 462 466 470 474
478 482 486 490 494 498 502 506 510 3 7 11 15 19 23 27 31 35 39 43
47 51 55 59 63 67 71 75 79 83 87 91 95 99 103 107 111 115 119 123 127
131 135 139 143 147 151 155 159 163 167 171 175 179 183 187 191 195
199 203 207 211 215 219 223 227 231 235 239 243 247 251 255 259 263
267 271 275 279 283 287 291 295 299 303 307 311 315 319 323 327 331
335 339 343 347 351 355 359 363 367 371 375 379 383 387 391 395 399
403 407 411 415 419 423 427 431 435 439 443 447 451 455 459 463 467
471 475 479 483 487 491 495 499 503 507 511;
#N canvas 0 22 698 457 setme 0;
#X obj 80 37 inlet;
#X msg 395 156 set \$1 \$2 \$3 \$4 \$5 \$6 \$7 \$8 \$9 \$10 \$11 \$12
\$13 \$14 \$15 \$16 \$17 \$18 \$19 \$20 \$21 \$22 \$23 \$24 \$25 \$26
\$27 \$28 \$29 \$30 \$31 \$32 \$33 \$34 \$35 \$36 \$37 \$38 \$39 \$40
\$41 \$42 \$43 \$44 \$45 \$46 \$47 \$48 \$49 \$50 \$51 \$52 \$53 \$54
\$55 \$56 \$57 \$58 \$59 \$60 \$61 \$62 \$63 \$64 \$65 \$66 \$67 \$68
\$69 \$70 \$71 \$72 \$73 \$74 \$75 \$76 \$77 \$78 \$79 \$80 \$81 \$82
\$83 \$84 \$85 \$86 \$87 \$88 \$89 \$90 \$91 \$92 \$93 \$94 \$95 \$96
\$97 \$98 \$99 \$100 \$101 \$102 \$103 \$104 \$105 \$106 \$107 \$108
\$109 \$110 \$111 \$112 \$113 \$114 \$115 \$116 \$117 \$118 \$119 \$120
\$121 \$122 \$123 \$124 \$125 \$126 \$127 \$128 \$129 \$130 \$131 \$132
\$133 \$134 \$135 \$136 \$137 \$138 \$139 \$140 \$141 \$142 \$143 \$144
\$145 \$146 \$147 \$148 \$149 \$150 \$151 \$152 \$153 \$154 \$155 \$156
\$157 \$158 \$159 \$160 \$161 \$162 \$163 \$164 \$165 \$166 \$167 \$168
\$169 \$170 \$171 \$172 \$173 \$174 \$175 \$176 \$177 \$178 \$179 \$180
\$181 \$182 \$183 \$184 \$185 \$186 \$187 \$188 \$189 \$190 \$191 \$192
\$193 \$194 \$195 \$196 \$197 \$198 \$199 \$200 \$201 \$202 \$203 \$204
\$205 \$206 \$207 \$208 \$209 \$210 \$211 \$212 \$213 \$214 \$215 \$216
\$217 \$218 \$219 \$220 \$221 \$222 \$223 \$224 \$225 \$226 \$227 \$228
\$229 \$230 \$231 \$232 \$233 \$234 \$235 \$236 \$237 \$238 \$239 \$240
\$241 \$242 \$243 \$244 \$245 \$246 \$247 \$248 \$249 \$250 \$251 \$252
\$253 \$254 \$255 \$256 \$257 \$258 \$259 \$260 \$261 \$262 \$263 \$264
\$265 \$266 \$267 \$268 \$269 \$270 \$271 \$272 \$273 \$274 \$275 \$276
\$277 \$278 \$279 \$280 \$281 \$282 \$283 \$284 \$285 \$286 \$287 \$288
\$289 \$290 \$291 \$292 \$293 \$294 \$295 \$296 \$297 \$298 \$299 \$300
\$301 \$302 \$303 \$304 \$305 \$306 \$307 \$308 \$309 \$310 \$311 \$312
\$313 \$314 \$315 \$316 \$317 \$318 \$319 \$320 \$321 \$322 \$323 \$324
\$325 \$326 \$327 \$328 \$329 \$330 \$331 \$332 \$333 \$334 \$335 \$336
\$337 \$338 \$339 \$340 \$341 \$342 \$343 \$344 \$345 \$346 \$347 \$348
\$349 \$350 \$351 \$352 \$353 \$354 \$355 \$356 \$357 \$358 \$359 \$360
\$361 \$362 \$363 \$364 \$365 \$366 \$367 \$368 \$369 \$370 \$371 \$372
\$373 \$374 \$375 \$376 \$377 \$378 \$379 \$380 \$381 \$382 \$383 \$384
\$385 \$386 \$387 \$388 \$389 \$390 \$391 \$392 \$393 \$394 \$395 \$396
\$397 \$398 \$399 \$400 \$401 \$402 \$403 \$404 \$405 \$406 \$407 \$408
\$409 \$410 \$411 \$412 \$413 \$414 \$415 \$416 \$417 \$418 \$419 \$420
\$421 \$422 \$423 \$424 \$425 \$426 \$427 \$428 \$429 \$430 \$431 \$432
\$433 \$434 \$435 \$436 \$437 \$438 \$439 \$440 \$441 \$442 \$443 \$444
\$445 \$446 \$447 \$448 \$449 \$450 \$451 \$452 \$453 \$454 \$455 \$456
\$457 \$458 \$459 \$460 \$461 \$462 \$463 \$464 \$465 \$466 \$467 \$468
\$469 \$470 \$471 \$472 \$473 \$474 \$475 \$476 \$477 \$478 \$479 \$480
\$481 \$482 \$483 \$484 \$485 \$486 \$487 \$488 \$489 \$490 \$491 \$492
\$493 \$494 \$495 \$496 \$497 \$498 \$499 \$500 \$501 \$502 \$503 \$504
\$505 \$506 \$507 \$508 \$509 \$510 \$511 \$512;
#X obj 229 660 outlet;
#X connect 0 0 1 0;
#X connect 1 0 2 0;
#X restore 12 28 pd setme;
#X connect 0 0 2 0;
#X connect 2 0 1 0;
#X restore 536 516 pd showme;
#X msg 172 191 showstate;
#X connect 0 0 2 0;
#X connect 2 0 3 0;
#X connect 3 0 4 0;
#X connect 3 1 4 1;
#X connect 4 0 42 0;
#X connect 4 1 42 1;
#X connect 5 0 6 0;
#X connect 5 1 6 1;
#X connect 6 0 8 0;
#X connect 7 0 1 0;
#X connect 8 0 7 0;
#X connect 9 0 12 1;
#X connect 10 0 11 0;
#X connect 11 0 12 0;
#X connect 11 1 9 0;
#X connect 11 2 9 1;
#X connect 12 0 13 0;
#X connect 13 0 16 0;
#X connect 15 0 10 0;
#X connect 17 0 8 1;
#X connect 19 0 20 0;
#X connect 19 1 20 1;
#X connect 20 0 22 0;
#X connect 21 0 18 0;
#X connect 22 0 21 0;
#X connect 23 0 22 1;
#X connect 25 0 26 0;
#X connect 25 1 26 1;
#X connect 26 0 28 0;
#X connect 27 0 24 0;
#X connect 28 0 27 0;
#X connect 29 0 28 1;
#X connect 31 0 32 0;
#X connect 31 1 32 1;
#X connect 32 0 34 0;
#X connect 33 0 30 0;
#X connect 34 0 33 0;
#X connect 35 0 34 1;
#X connect 36 0 42 0;
#X connect 38 0 42 4;
#X connect 40 0 42 2;
#X connect 41 0 42 3;
#X connect 42 0 5 0;
#X connect 42 1 5 1;
#X connect 42 2 19 0;
#X connect 42 3 19 1;
#X connect 42 4 25 0;
#X connect 42 5 25 1;
#X connect 42 6 31 0;
#X connect 42 7 31 1;
#X connect 42 8 43 0;
#X connect 42 9 37 0;
#X connect 44 0 42 0;
#X restore 34 277 pd splitspect-rfft;
#X obj 54 231 r splitspect-help-msgs;
#N canvas 0 22 394 332 meters 0;
#X obj 75 133 vu 15 120 empty empty -1 -8 0 10 -66577 -1 1 0;
#N canvas 0 22 450 300 meter 0;
#X obj 110 164 snapshot~;
#X obj 126 114 tgl 15 0 empty empty empty 17 7 0 10 -262144 -1 -1 1
1;
#X floatatom 110 187 5 0 0 0 - - -, f 5;
#X obj 110 91 env~ 1024;
#X obj 126 140 metro 100;
#X obj 109 211 - 100;
#X obj 231 46 loadbang;
#X msg 231 71 1;
#X obj 109 246 outlet;
#X obj 110 51 inlet~;
#X connect 0 0 2 0;
#X connect 1 0 4 0;
#X connect 2 0 5 0;
#X connect 3 0 0 0;
#X connect 4 0 0 0;
#X connect 5 0 8 0;
#X connect 6 0 7 0;
#X connect 7 0 1 0;
#X connect 9 0 3 0;
#X restore 74 103 pd meter;
#X obj 74 37 inlet~;
#X obj 141 135 vu 15 120 empty empty -1 -8 0 10 -66577 -1 1 0;
#N canvas 0 22 450 300 meter 0;
#X obj 110 164 snapshot~;
#X obj 126 114 tgl 15 0 empty empty empty 17 7 0 10 -262144 -1 -1 1
1;
#X floatatom 110 187 5 0 0 0 - - -, f 5;
#X obj 110 91 env~ 1024;
#X obj 126 140 metro 100;
#X obj 109 211 - 100;
#X obj 231 46 loadbang;
#X msg 231 71 1;
#X obj 109 246 outlet;
#X obj 110 51 inlet~;
#X connect 0 0 2 0;
#X connect 1 0 4 0;
#X connect 2 0 5 0;
#X connect 3 0 0 0;
#X connect 4 0 0 0;
#X connect 5 0 8 0;
#X connect 6 0 7 0;
#X connect 7 0 1 0;
#X connect 9 0 3 0;
#X restore 140 105 pd meter;
#X obj 140 39 inlet~;
#X obj 213 133 vu 15 120 empty empty -1 -8 0 10 -66577 -1 1 0;
#N canvas 0 22 450 300 meter 0;
#X obj 110 164 snapshot~;
#X obj 126 114 tgl 15 0 empty empty empty 17 7 0 10 -262144 -1 -1 1
1;
#X floatatom 110 187 5 0 0 0 - - -, f 5;
#X obj 110 91 env~ 1024;
#X obj 126 140 metro 100;
#X obj 109 211 - 100;
#X obj 231 46 loadbang;
#X msg 231 71 1;
#X obj 109 246 outlet;
#X obj 110 51 inlet~;
#X connect 0 0 2 0;
#X connect 1 0 4 0;
#X connect 2 0 5 0;
#X connect 3 0 0 0;
#X connect 4 0 0 0;
#X connect 5 0 8 0;
#X connect 6 0 7 0;
#X connect 7 0 1 0;
#X connect 9 0 3 0;
#X restore 212 103 pd meter;
#X obj 212 37 inlet~;
#X obj 279 135 vu 15 120 empty empty -1 -8 0 10 -66577 -1 1 0;
#N canvas 0 22 450 300 meter 0;
#X obj 110 164 snapshot~;
#X obj 126 114 tgl 15 0 empty empty empty 17 7 0 10 -262144 -1 -1 1
1;
#X floatatom 110 187 5 0 0 0 - - -, f 5;
#X obj 110 91 env~ 1024;
#X obj 126 140 metro 100;
#X obj 109 211 - 100;
#X obj 231 46 loadbang;
#X msg 231 71 1;
#X obj 109 246 outlet;
#X obj 110 51 inlet~;
#X connect 0 0 2 0;
#X connect 1 0 4 0;
#X connect 2 0 5 0;
#X connect 3 0 0 0;
#X connect 4 0 0 0;
#X connect 5 0 8 0;
#X connect 6 0 7 0;
#X connect 7 0 1 0;
#X connect 9 0 3 0;
#X restore 278 105 pd meter;
#X obj 278 39 inlet~, f 22;
#X connect 1 0 0 0;
#X connect 2 0 1 0;
#X connect 4 0 3 0;
#X connect 5 0 4 0;
#X connect 7 0 6 0;
#X connect 8 0 7 0;
#X connect 10 0 9 0;
#X connect 11 0 10 0;
#X restore 182 387 pd meters;
#N canvas 5 525 750 354 messages 0;
#X msg 319 186 scramble;
#X obj 313 87 metro 5000;
#X obj 313 53 tgl 15 0 empty empty empty 17 7 0 10 -262144 -1 -1 0
1;
#X msg 9 114 showstate;
#X msg 126 98 spiral;
#X obj 395 154 loadbang;
#X msg 395 183 ramptime 5000;
#X msg 527 192 manual_override \$1;
#X obj 527 154 tgl 15 0 empty empty empty 17 7 0 10 -262144 -1 -1 0
1;
#X text 384 83 use for constantly changing spectra;
#X msg 222 113 bypass \$1;
#X obj 221 63 tgl 15 0 empty empty empty 17 7 0 10 -262144 -1 -1 0
1;
#X obj 320 230 s splitspect-help-msgs;
#X msg 30 55 squantize 16;
#X connect 0 0 12 0;
#X connect 1 0 0 0;
#X connect 2 0 1 0;
#X connect 3 0 12 0;
#X connect 4 0 12 0;
#X connect 5 0 6 0;
#X connect 6 0 12 0;
#X connect 7 0 12 0;
#X connect 8 0 7 0;
#X connect 10 0 12 0;
#X connect 11 0 10 0;
#X connect 13 0 12 0;
#X restore 39 53 pd messages;
#X msg 90 492 0.25;
#X msg 152 481 0.25;
#X obj 23 581 shoehorn~ 4 2;
#X obj 18 636 dac~, f 76;
#X msg 353 525 0.25;
#X connect 0 0 23 0;
#X connect 1 0 17 0;
#X connect 2 0 23 1;
#X connect 4 0 3 0;
#X connect 5 0 2 1;
#X connect 5 0 0 1;
#X connect 5 0 7 1;
#X connect 5 0 6 1;
#X connect 6 0 23 2;
#X connect 7 0 23 3;
#X connect 9 0 5 0;
#X connect 10 0 17 4;
#X connect 11 0 17 2;
#X connect 12 0 17 3;
#X connect 15 0 0 1;
#X connect 17 0 0 0;
#X connect 17 0 19 0;
#X connect 17 1 2 0;
#X connect 17 1 19 1;
#X connect 17 2 6 0;
#X connect 17 2 19 2;
#X connect 17 3 7 0;
#X connect 17 3 19 3;
#X connect 17 4 8 0;
#X connect 18 0 17 1;
#X connect 21 0 2 1;
#X connect 22 0 6 1;
#X connect 23 0 24 0;
#X connect 23 1 24 1;
#X connect 25 0 7 1;
